<mxfile host="app.diagrams.net" agent="Mozilla/5.0 (Windows NT 10.0; Win64; x64) AppleWebKit/537.36 (KHTML, like Gecko) Chrome/126.0.0.0 Safari/537.36" version="24.8.8">
  <diagram name="第 1 页" id="QTjSQ-1yjxRxtxUuZA-b">
    <mxGraphModel dx="3141" dy="1193" grid="1" gridSize="10" guides="1" tooltips="1" connect="1" arrows="1" fold="1" page="1" pageScale="1" pageWidth="827" pageHeight="1169" math="0" shadow="0">
      <root>
        <mxCell id="0" />
        <mxCell id="1" parent="0" />
        <mxCell id="yadPp5fhaj876_IHCzmh-15" value="登录过期重新登录" style="shape=umlFrame;whiteSpace=wrap;html=1;pointerEvents=0;sketch=0;strokeColor=default;align=center;verticalAlign=middle;fontFamily=Helvetica;fontSize=12;fontColor=default;fillColor=default;swimlaneFillColor=#FFE6CC;gradientColor=none;" parent="1" vertex="1">
          <mxGeometry x="-520" y="296" width="880" height="654" as="geometry" />
        </mxCell>
        <mxCell id="QH9AOdgC8zUdyQS9NOri-106" value="车控SDK" style="shape=umlLifeline;perimeter=lifelinePerimeter;whiteSpace=wrap;html=1;container=0;dropTarget=0;collapsible=0;recursiveResize=0;outlineConnect=0;portConstraint=eastwest;newEdgeStyle={&quot;edgeStyle&quot;:&quot;elbowEdgeStyle&quot;,&quot;elbow&quot;:&quot;vertical&quot;,&quot;curved&quot;:0,&quot;rounded&quot;:0};fillColor=#dae8fc;strokeColor=#6c8ebf;" parent="1" vertex="1">
          <mxGeometry x="-243" y="52" width="103" height="1030" as="geometry" />
        </mxCell>
        <mxCell id="QH9AOdgC8zUdyQS9NOri-4" value="集成方：沈阳SDK" style="shape=umlLifeline;perimeter=lifelinePerimeter;whiteSpace=wrap;html=1;container=0;dropTarget=0;collapsible=0;recursiveResize=0;outlineConnect=0;portConstraint=eastwest;newEdgeStyle={&quot;edgeStyle&quot;:&quot;elbowEdgeStyle&quot;,&quot;elbow&quot;:&quot;vertical&quot;,&quot;curved&quot;:0,&quot;rounded&quot;:0};fillColor=#ffe6cc;strokeColor=#d79b00;" parent="1" vertex="1">
          <mxGeometry x="-417" y="52" width="100" height="1030" as="geometry" />
        </mxCell>
        <mxCell id="QH9AOdgC8zUdyQS9NOri-5" value="" style="html=1;points=[];perimeter=orthogonalPerimeter;outlineConnect=0;targetShapes=umlLifeline;portConstraint=eastwest;newEdgeStyle={&quot;edgeStyle&quot;:&quot;elbowEdgeStyle&quot;,&quot;elbow&quot;:&quot;vertical&quot;,&quot;curved&quot;:0,&quot;rounded&quot;:0};" parent="QH9AOdgC8zUdyQS9NOri-4" vertex="1">
          <mxGeometry x="44" y="134" width="10" height="856" as="geometry" />
        </mxCell>
        <mxCell id="QH9AOdgC8zUdyQS9NOri-7" value="8、根据集成方userId &lt;br&gt;获取车控sdk登录的 cll-ticket" style="html=1;verticalAlign=bottom;endArrow=block;edgeStyle=elbowEdgeStyle;elbow=horizontal;curved=0;rounded=0;" parent="1" edge="1">
          <mxGeometry x="0.001" relative="1" as="geometry">
            <mxPoint x="215" y="442" as="sourcePoint" />
            <Array as="points" />
            <mxPoint x="5" y="442" as="targetPoint" />
            <mxPoint as="offset" />
          </mxGeometry>
        </mxCell>
        <mxCell id="QH9AOdgC8zUdyQS9NOri-8" value="10、返回 cll-userId、cll-ticket" style="html=1;verticalAlign=bottom;endArrow=open;dashed=1;endSize=8;edgeStyle=elbowEdgeStyle;elbow=horizontal;curved=0;rounded=0;" parent="1" edge="1">
          <mxGeometry x="0.0057" relative="1" as="geometry">
            <mxPoint x="212.5" y="524" as="targetPoint" />
            <Array as="points">
              <mxPoint x="93" y="524" />
            </Array>
            <mxPoint x="8" y="524" as="sourcePoint" />
            <mxPoint as="offset" />
          </mxGeometry>
        </mxCell>
        <mxCell id="QH9AOdgC8zUdyQS9NOri-9" value="车控云" style="shape=umlLifeline;perimeter=lifelinePerimeter;whiteSpace=wrap;html=1;container=0;dropTarget=0;collapsible=0;recursiveResize=0;outlineConnect=0;portConstraint=eastwest;newEdgeStyle={&quot;edgeStyle&quot;:&quot;elbowEdgeStyle&quot;,&quot;elbow&quot;:&quot;vertical&quot;,&quot;curved&quot;:0,&quot;rounded&quot;:0};fillColor=#dae8fc;strokeColor=#6c8ebf;" parent="1" vertex="1">
          <mxGeometry x="-70" y="52" width="140" height="1030" as="geometry" />
        </mxCell>
        <mxCell id="yadPp5fhaj876_IHCzmh-9" value="" style="html=1;points=[];perimeter=orthogonalPerimeter;outlineConnect=0;targetShapes=umlLifeline;portConstraint=eastwest;newEdgeStyle={&quot;edgeStyle&quot;:&quot;elbowEdgeStyle&quot;,&quot;elbow&quot;:&quot;vertical&quot;,&quot;curved&quot;:0,&quot;rounded&quot;:0};" parent="QH9AOdgC8zUdyQS9NOri-9" vertex="1">
          <mxGeometry x="66" y="160" width="10" height="790" as="geometry" />
        </mxCell>
        <mxCell id="yadPp5fhaj876_IHCzmh-6" value="" style="endArrow=classic;html=1;rounded=0;" parent="QH9AOdgC8zUdyQS9NOri-9" edge="1">
          <mxGeometry width="50" height="50" relative="1" as="geometry">
            <mxPoint x="-291" y="146" as="sourcePoint" />
            <mxPoint x="-125" y="146" as="targetPoint" />
          </mxGeometry>
        </mxCell>
        <mxCell id="yadPp5fhaj876_IHCzmh-7" value="2、调用控车sdk接口" style="edgeLabel;html=1;align=center;verticalAlign=middle;resizable=0;points=[];" parent="yadPp5fhaj876_IHCzmh-6" vertex="1" connectable="0">
          <mxGeometry x="-0.1703" y="2" relative="1" as="geometry">
            <mxPoint x="14" y="2" as="offset" />
          </mxGeometry>
        </mxCell>
        <mxCell id="yadPp5fhaj876_IHCzmh-10" value="" style="endArrow=classic;html=1;rounded=0;" parent="QH9AOdgC8zUdyQS9NOri-9" target="yadPp5fhaj876_IHCzmh-9" edge="1">
          <mxGeometry width="50" height="50" relative="1" as="geometry">
            <mxPoint x="-111" y="166" as="sourcePoint" />
            <mxPoint x="55" y="166" as="targetPoint" />
          </mxGeometry>
        </mxCell>
        <mxCell id="yadPp5fhaj876_IHCzmh-11" value="3、调用控车接口" style="edgeLabel;html=1;align=center;verticalAlign=middle;resizable=0;points=[];" parent="yadPp5fhaj876_IHCzmh-10" vertex="1" connectable="0">
          <mxGeometry x="-0.1703" y="2" relative="1" as="geometry">
            <mxPoint x="20" y="2" as="offset" />
          </mxGeometry>
        </mxCell>
        <mxCell id="yadPp5fhaj876_IHCzmh-13" value="5、cll-token过期，请重新登录" style="html=1;verticalAlign=bottom;endArrow=open;dashed=1;endSize=8;edgeStyle=elbowEdgeStyle;elbow=vertical;curved=0;rounded=0;" parent="QH9AOdgC8zUdyQS9NOri-9" edge="1">
          <mxGeometry relative="1" as="geometry">
            <mxPoint x="-115" y="274" as="targetPoint" />
            <Array as="points" />
            <mxPoint x="66.5" y="274.1034482758621" as="sourcePoint" />
          </mxGeometry>
        </mxCell>
        <mxCell id="yadPp5fhaj876_IHCzmh-14" value="6、登录过期，请重新登录" style="html=1;verticalAlign=bottom;endArrow=open;dashed=1;endSize=8;edgeStyle=elbowEdgeStyle;elbow=vertical;curved=0;rounded=0;" parent="QH9AOdgC8zUdyQS9NOri-9" edge="1">
          <mxGeometry x="0.0045" relative="1" as="geometry">
            <mxPoint x="-292" y="299.24" as="targetPoint" />
            <Array as="points" />
            <mxPoint x="-126.5" y="299.33333333333337" as="sourcePoint" />
            <mxPoint as="offset" />
          </mxGeometry>
        </mxCell>
        <mxCell id="yadPp5fhaj876_IHCzmh-8" value="" style="html=1;points=[];perimeter=orthogonalPerimeter;outlineConnect=0;targetShapes=umlLifeline;portConstraint=eastwest;newEdgeStyle={&quot;edgeStyle&quot;:&quot;elbowEdgeStyle&quot;,&quot;elbow&quot;:&quot;vertical&quot;,&quot;curved&quot;:0,&quot;rounded&quot;:0};" parent="QH9AOdgC8zUdyQS9NOri-9" vertex="1">
          <mxGeometry x="-125.5" y="80" width="10" height="890" as="geometry" />
        </mxCell>
        <mxCell id="QH9AOdgC8zUdyQS9NOri-16" value="集成方：沈阳云" style="shape=umlLifeline;perimeter=lifelinePerimeter;whiteSpace=wrap;html=1;container=0;dropTarget=0;collapsible=0;recursiveResize=0;outlineConnect=0;portConstraint=eastwest;newEdgeStyle={&quot;edgeStyle&quot;:&quot;elbowEdgeStyle&quot;,&quot;elbow&quot;:&quot;vertical&quot;,&quot;curved&quot;:0,&quot;rounded&quot;:0};fillColor=#ffe6cc;strokeColor=#d79b00;" parent="1" vertex="1">
          <mxGeometry x="148" y="52" width="140" height="1030" as="geometry" />
        </mxCell>
        <mxCell id="QH9AOdgC8zUdyQS9NOri-19" value="" style="html=1;points=[];perimeter=orthogonalPerimeter;outlineConnect=0;targetShapes=umlLifeline;portConstraint=eastwest;newEdgeStyle={&quot;edgeStyle&quot;:&quot;elbowEdgeStyle&quot;,&quot;elbow&quot;:&quot;vertical&quot;,&quot;curved&quot;:0,&quot;rounded&quot;:0};" parent="QH9AOdgC8zUdyQS9NOri-16" vertex="1">
          <mxGeometry x="65" y="80" width="10" height="50" as="geometry" />
        </mxCell>
        <mxCell id="QH9AOdgC8zUdyQS9NOri-20" value="0、预置车控SDK-Server颁发的appId, secretKey" style="html=1;align=left;spacingLeft=2;endArrow=block;rounded=0;edgeStyle=orthogonalEdgeStyle;curved=0;rounded=0;fontFamily=Helvetica;fontSize=12;fontColor=default;" parent="QH9AOdgC8zUdyQS9NOri-16" edge="1">
          <mxGeometry relative="1" as="geometry">
            <mxPoint x="75" y="89" as="sourcePoint" />
            <Array as="points">
              <mxPoint x="110" y="89" />
              <mxPoint x="110" y="119" />
            </Array>
            <mxPoint x="75" y="119" as="targetPoint" />
          </mxGeometry>
        </mxCell>
        <mxCell id="yadPp5fhaj876_IHCzmh-1" value="" style="html=1;points=[];perimeter=orthogonalPerimeter;outlineConnect=0;targetShapes=umlLifeline;portConstraint=eastwest;newEdgeStyle={&quot;edgeStyle&quot;:&quot;elbowEdgeStyle&quot;,&quot;elbow&quot;:&quot;vertical&quot;,&quot;curved&quot;:0,&quot;rounded&quot;:0};" parent="QH9AOdgC8zUdyQS9NOri-16" vertex="1">
          <mxGeometry x="65" y="324" width="10" height="210" as="geometry" />
        </mxCell>
        <mxCell id="QH9AOdgC8zUdyQS9NOri-23" value="" style="endArrow=classic;html=1;rounded=0;" parent="1" edge="1">
          <mxGeometry width="50" height="50" relative="1" as="geometry">
            <mxPoint x="-362" y="386" as="sourcePoint" />
            <mxPoint x="212" y="386" as="targetPoint" />
            <Array as="points">
              <mxPoint x="-47" y="387" />
            </Array>
          </mxGeometry>
        </mxCell>
        <mxCell id="QH9AOdgC8zUdyQS9NOri-24" value="7、&lt;span class=&quot;lark-record-clipboard&quot; data-lark-record-format=&quot;docx/text&quot; data-lark-record-data=&quot;{&amp;quot;rootId&amp;quot;:&amp;quot;Vaa9d1ZOkorkIcx9VxlcfpXfnqd&amp;quot;,&amp;quot;text&amp;quot;:{&amp;quot;initialAttributedTexts&amp;quot;:{&amp;quot;text&amp;quot;:{&amp;quot;0&amp;quot;:&amp;quot;获取车控sdk登录的dkTicket&amp;quot;},&amp;quot;attribs&amp;quot;:{&amp;quot;0&amp;quot;:&amp;quot;*0+i&amp;quot;}},&amp;quot;apool&amp;quot;:{&amp;quot;numToAttrib&amp;quot;:{&amp;quot;0&amp;quot;:[&amp;quot;author&amp;quot;,&amp;quot;7394293787637907457&amp;quot;]},&amp;quot;nextNum&amp;quot;:1}},&amp;quot;type&amp;quot;:&amp;quot;text&amp;quot;,&amp;quot;referenceRecordMap&amp;quot;:{},&amp;quot;extra&amp;quot;:{&amp;quot;channel&amp;quot;:&amp;quot;saas&amp;quot;,&amp;quot;pasteRandomId&amp;quot;:&amp;quot;7299a024-1c3c-40be-8f7b-bb12ddabe905&amp;quot;,&amp;quot;mention_page_title&amp;quot;:{},&amp;quot;external_mention_url&amp;quot;:{}},&amp;quot;isKeepQuoteContainer&amp;quot;:false,&amp;quot;isFromCode&amp;quot;:false,&amp;quot;selection&amp;quot;:[{&amp;quot;id&amp;quot;:18,&amp;quot;type&amp;quot;:&amp;quot;text&amp;quot;,&amp;quot;selection&amp;quot;:{&amp;quot;start&amp;quot;:2,&amp;quot;end&amp;quot;:20},&amp;quot;recordId&amp;quot;:&amp;quot;RPmsdTpCJoCOWRx68wlc1dnInSe&amp;quot;}],&amp;quot;payloadMap&amp;quot;:{},&amp;quot;isCut&amp;quot;:false}&quot;&gt;&lt;/span&gt;获取车控sdk登录的 cll-ticket" style="edgeLabel;html=1;align=center;verticalAlign=middle;resizable=0;points=[];" parent="QH9AOdgC8zUdyQS9NOri-23" vertex="1" connectable="0">
          <mxGeometry x="-0.1703" y="2" relative="1" as="geometry">
            <mxPoint x="24" y="1" as="offset" />
          </mxGeometry>
        </mxCell>
        <mxCell id="QH9AOdgC8zUdyQS9NOri-50" value="11、返回 cll-userId、cll-ticket" style="html=1;verticalAlign=bottom;endArrow=open;dashed=1;endSize=8;edgeStyle=elbowEdgeStyle;elbow=vertical;curved=0;rounded=0;" parent="1" edge="1">
          <mxGeometry x="0.001" relative="1" as="geometry">
            <mxPoint x="-361.99965517241367" y="566.4482758620691" as="targetPoint" />
            <Array as="points" />
            <mxPoint x="209" y="566" as="sourcePoint" />
            <mxPoint as="offset" />
          </mxGeometry>
        </mxCell>
        <mxCell id="QH9AOdgC8zUdyQS9NOri-55" value="14、校验 cll-ticket 合法性" style="html=1;align=left;spacingLeft=2;endArrow=block;rounded=0;edgeStyle=orthogonalEdgeStyle;curved=0;rounded=0;fontFamily=Helvetica;fontSize=12;fontColor=default;" parent="1" edge="1">
          <mxGeometry relative="1" as="geometry">
            <mxPoint x="8" y="634" as="sourcePoint" />
            <Array as="points">
              <mxPoint x="38" y="634" />
              <mxPoint x="38" y="664" />
            </Array>
            <mxPoint x="8" y="664" as="targetPoint" />
          </mxGeometry>
        </mxCell>
        <mxCell id="QH9AOdgC8zUdyQS9NOri-89" value="&lt;span style=&quot;font-size: 11px;&quot;&gt;9、根据集成方userId 生成 cll-ticket&lt;/span&gt;" style="html=1;align=left;spacingLeft=2;endArrow=block;rounded=0;edgeStyle=orthogonalEdgeStyle;curved=0;rounded=0;fontFamily=Helvetica;fontSize=12;fontColor=default;" parent="1" edge="1">
          <mxGeometry relative="1" as="geometry">
            <mxPoint x="8" y="467" as="sourcePoint" />
            <Array as="points">
              <mxPoint x="38" y="467" />
              <mxPoint x="38" y="497" />
            </Array>
            <mxPoint x="8" y="497" as="targetPoint" />
            <mxPoint as="offset" />
          </mxGeometry>
        </mxCell>
        <mxCell id="QH9AOdgC8zUdyQS9NOri-99" value="15、返回（cll-userId,cll-token）" style="html=1;verticalAlign=bottom;endArrow=open;dashed=1;endSize=8;edgeStyle=elbowEdgeStyle;elbow=horizontal;curved=0;rounded=0;exitX=0.3;exitY=0.32;exitDx=0;exitDy=0;exitPerimeter=0;" parent="1" edge="1">
          <mxGeometry relative="1" as="geometry">
            <mxPoint x="-186" y="681.14" as="targetPoint" />
            <Array as="points" />
            <mxPoint x="-6" y="681.0799999999999" as="sourcePoint" />
          </mxGeometry>
        </mxCell>
        <mxCell id="QH9AOdgC8zUdyQS9NOri-107" value="" style="endArrow=classic;html=1;rounded=0;" parent="1" edge="1">
          <mxGeometry width="50" height="50" relative="1" as="geometry">
            <mxPoint x="-362" y="602" as="sourcePoint" />
            <mxPoint x="-200" y="602" as="targetPoint" />
          </mxGeometry>
        </mxCell>
        <mxCell id="QH9AOdgC8zUdyQS9NOri-108" value="12、使用cll-ticket进行登录" style="edgeLabel;html=1;align=center;verticalAlign=middle;resizable=0;points=[];" parent="QH9AOdgC8zUdyQS9NOri-107" vertex="1" connectable="0">
          <mxGeometry x="-0.1703" y="2" relative="1" as="geometry">
            <mxPoint x="8" y="2" as="offset" />
          </mxGeometry>
        </mxCell>
        <mxCell id="QH9AOdgC8zUdyQS9NOri-112" value="18、返回" style="html=1;verticalAlign=bottom;endArrow=open;dashed=1;endSize=8;edgeStyle=elbowEdgeStyle;elbow=vertical;curved=0;rounded=0;" parent="1" edge="1">
          <mxGeometry relative="1" as="geometry">
            <mxPoint x="-362" y="832" as="targetPoint" />
            <Array as="points" />
            <mxPoint x="-197" y="832.5" as="sourcePoint" />
          </mxGeometry>
        </mxCell>
        <mxCell id="yadPp5fhaj876_IHCzmh-2" value="" style="endArrow=classic;html=1;rounded=0;" parent="1" edge="1">
          <mxGeometry width="50" height="50" relative="1" as="geometry">
            <mxPoint x="-186" y="621" as="sourcePoint" />
            <mxPoint x="-4.5" y="621" as="targetPoint" />
          </mxGeometry>
        </mxCell>
        <mxCell id="yadPp5fhaj876_IHCzmh-3" value="13、使用 cll-ticket 进行登录" style="edgeLabel;html=1;align=center;verticalAlign=middle;resizable=0;points=[];" parent="yadPp5fhaj876_IHCzmh-2" vertex="1" connectable="0">
          <mxGeometry x="-0.1703" y="2" relative="1" as="geometry">
            <mxPoint x="20" y="2" as="offset" />
          </mxGeometry>
        </mxCell>
        <mxCell id="yadPp5fhaj876_IHCzmh-4" value="17、保存cll-userId, cll-token" style="html=1;align=left;spacingLeft=2;endArrow=block;rounded=0;edgeStyle=orthogonalEdgeStyle;curved=0;rounded=0;fontFamily=Helvetica;fontSize=12;fontColor=default;" parent="1" edge="1">
          <mxGeometry relative="1" as="geometry">
            <mxPoint x="-184" y="782" as="sourcePoint" />
            <Array as="points">
              <mxPoint x="-154" y="782" />
              <mxPoint x="-154" y="812" />
            </Array>
            <mxPoint x="-184" y="812" as="targetPoint" />
            <mxPoint as="offset" />
          </mxGeometry>
        </mxCell>
        <mxCell id="yadPp5fhaj876_IHCzmh-16" value="4、验证车控sdk的 cll-token 合法性" style="html=1;align=left;spacingLeft=2;endArrow=block;rounded=0;edgeStyle=orthogonalEdgeStyle;curved=0;rounded=0;fontFamily=Helvetica;fontSize=12;fontColor=default;" parent="1" edge="1">
          <mxGeometry relative="1" as="geometry">
            <mxPoint x="7" y="236" as="sourcePoint" />
            <Array as="points">
              <mxPoint x="42" y="236" />
              <mxPoint x="42" y="266" />
            </Array>
            <mxPoint x="7" y="266" as="targetPoint" />
            <mxPoint as="offset" />
          </mxGeometry>
        </mxCell>
        <mxCell id="yadPp5fhaj876_IHCzmh-19" value="" style="endArrow=classic;html=1;rounded=0;" parent="1" edge="1">
          <mxGeometry width="50" height="50" relative="1" as="geometry">
            <mxPoint x="-360" y="868" as="sourcePoint" />
            <mxPoint x="-194" y="868" as="targetPoint" />
          </mxGeometry>
        </mxCell>
        <mxCell id="yadPp5fhaj876_IHCzmh-20" value="19、调用控车sdk接口" style="edgeLabel;html=1;align=center;verticalAlign=middle;resizable=0;points=[];" parent="yadPp5fhaj876_IHCzmh-19" vertex="1" connectable="0">
          <mxGeometry x="-0.1703" y="2" relative="1" as="geometry">
            <mxPoint x="14" y="2" as="offset" />
          </mxGeometry>
        </mxCell>
        <mxCell id="yadPp5fhaj876_IHCzmh-21" value="" style="endArrow=classic;html=1;rounded=0;" parent="1" edge="1">
          <mxGeometry width="50" height="50" relative="1" as="geometry">
            <mxPoint x="-181" y="878" as="sourcePoint" />
            <mxPoint x="-4" y="878" as="targetPoint" />
          </mxGeometry>
        </mxCell>
        <mxCell id="yadPp5fhaj876_IHCzmh-22" value="20、调用控车接口" style="edgeLabel;html=1;align=center;verticalAlign=middle;resizable=0;points=[];" parent="yadPp5fhaj876_IHCzmh-21" vertex="1" connectable="0">
          <mxGeometry x="-0.1703" y="2" relative="1" as="geometry">
            <mxPoint x="20" y="2" as="offset" />
          </mxGeometry>
        </mxCell>
        <mxCell id="yadPp5fhaj876_IHCzmh-23" value="21、验证 cll-token 合法性" style="html=1;align=left;spacingLeft=2;endArrow=block;rounded=0;edgeStyle=orthogonalEdgeStyle;curved=0;rounded=0;fontFamily=Helvetica;fontSize=12;fontColor=default;" parent="1" edge="1">
          <mxGeometry relative="1" as="geometry">
            <mxPoint x="6" y="898" as="sourcePoint" />
            <Array as="points">
              <mxPoint x="41" y="898" />
              <mxPoint x="41" y="928" />
            </Array>
            <mxPoint x="6" y="928" as="targetPoint" />
            <mxPoint as="offset" />
          </mxGeometry>
        </mxCell>
        <mxCell id="yadPp5fhaj876_IHCzmh-25" value="22、返回车控结果" style="html=1;verticalAlign=bottom;endArrow=open;dashed=1;endSize=8;edgeStyle=elbowEdgeStyle;elbow=vertical;curved=0;rounded=0;" parent="1" edge="1">
          <mxGeometry relative="1" as="geometry">
            <mxPoint x="-183" y="988" as="targetPoint" />
            <Array as="points" />
            <mxPoint x="-8" y="988" as="sourcePoint" />
          </mxGeometry>
        </mxCell>
        <mxCell id="yadPp5fhaj876_IHCzmh-26" value="23、返回车控结果" style="html=1;verticalAlign=bottom;endArrow=open;dashed=1;endSize=8;edgeStyle=elbowEdgeStyle;elbow=vertical;curved=0;rounded=0;" parent="1" edge="1">
          <mxGeometry relative="1" as="geometry">
            <mxPoint x="-359" y="1018" as="targetPoint" />
            <Array as="points" />
            <mxPoint x="-199" y="1018" as="sourcePoint" />
          </mxGeometry>
        </mxCell>
        <mxCell id="yadPp5fhaj876_IHCzmh-28" value="客户APP" style="shape=umlLifeline;perimeter=lifelinePerimeter;whiteSpace=wrap;html=1;container=0;dropTarget=0;collapsible=0;recursiveResize=0;outlineConnect=0;portConstraint=eastwest;newEdgeStyle={&quot;edgeStyle&quot;:&quot;elbowEdgeStyle&quot;,&quot;elbow&quot;:&quot;vertical&quot;,&quot;curved&quot;:0,&quot;rounded&quot;:0};fillColor=#f8cecc;strokeColor=#b85450;" parent="1" vertex="1">
          <mxGeometry x="-660" y="52" width="100" height="1030" as="geometry" />
        </mxCell>
        <mxCell id="yadPp5fhaj876_IHCzmh-29" value="" style="html=1;points=[];perimeter=orthogonalPerimeter;outlineConnect=0;targetShapes=umlLifeline;portConstraint=eastwest;newEdgeStyle={&quot;edgeStyle&quot;:&quot;elbowEdgeStyle&quot;,&quot;elbow&quot;:&quot;vertical&quot;,&quot;curved&quot;:0,&quot;rounded&quot;:0};" parent="yadPp5fhaj876_IHCzmh-28" vertex="1">
          <mxGeometry x="45" y="100" width="10" height="910" as="geometry" />
        </mxCell>
        <mxCell id="yadPp5fhaj876_IHCzmh-30" value="" style="endArrow=classic;html=1;rounded=0;" parent="1" edge="1">
          <mxGeometry width="50" height="50" relative="1" as="geometry">
            <mxPoint x="-604" y="190" as="sourcePoint" />
            <mxPoint x="-371.5" y="190" as="targetPoint" />
          </mxGeometry>
        </mxCell>
        <mxCell id="yadPp5fhaj876_IHCzmh-31" value="1、调用控车接口" style="edgeLabel;html=1;align=center;verticalAlign=middle;resizable=0;points=[];" parent="yadPp5fhaj876_IHCzmh-30" vertex="1" connectable="0">
          <mxGeometry x="-0.1703" y="2" relative="1" as="geometry">
            <mxPoint x="14" y="2" as="offset" />
          </mxGeometry>
        </mxCell>
        <mxCell id="yadPp5fhaj876_IHCzmh-32" value="24、返回车控结果" style="html=1;verticalAlign=bottom;endArrow=open;dashed=1;endSize=8;edgeStyle=elbowEdgeStyle;elbow=vertical;curved=0;rounded=0;" parent="1" edge="1">
          <mxGeometry relative="1" as="geometry">
            <mxPoint x="-602" y="1032" as="targetPoint" />
            <Array as="points" />
            <mxPoint x="-376" y="1032" as="sourcePoint" />
          </mxGeometry>
        </mxCell>
        <mxCell id="O7aSLrCw04hBj_t3Q5xS-1" value="4、车控SDK初始化" style="html=1;align=left;spacingLeft=2;endArrow=block;rounded=0;edgeStyle=orthogonalEdgeStyle;curved=0;rounded=0;fontFamily=Helvetica;fontSize=12;fontColor=default;" parent="1" edge="1">
          <mxGeometry relative="1" as="geometry">
            <mxPoint x="-185" y="140" as="sourcePoint" />
            <Array as="points">
              <mxPoint x="-150" y="140" />
              <mxPoint x="-150" y="170" />
            </Array>
            <mxPoint x="-185" y="170" as="targetPoint" />
          </mxGeometry>
        </mxCell>
        <mxCell id="O7aSLrCw04hBj_t3Q5xS-3" value="16、使用 cll-userId 初始化白盒" style="html=1;align=left;spacingLeft=2;endArrow=block;rounded=0;edgeStyle=orthogonalEdgeStyle;curved=0;rounded=0;fontFamily=Helvetica;fontSize=12;fontColor=default;" parent="1" edge="1">
          <mxGeometry relative="1" as="geometry">
            <mxPoint x="-183" y="716" as="sourcePoint" />
            <Array as="points">
              <mxPoint x="-153" y="716" />
              <mxPoint x="-153" y="746" />
            </Array>
            <mxPoint x="-183" y="746" as="targetPoint" />
            <mxPoint as="offset" />
          </mxGeometry>
        </mxCell>
      </root>
    </mxGraphModel>
  </diagram>
</mxfile>
